<svg xmlns="http://www.w3.org/2000/svg" viewBox="0 0 512 512" fill="none">
  <defs>
    <linearGradient id="bg" x1="0" y1="0" x2="512" y2="512" gradientUnits="userSpaceOnUse">
      <stop offset="0%" stop-color="#6366f1"/>
      <stop offset="100%" stop-color="#4f46e5"/>
    </linearGradient>
    <linearGradient id="shield" x1="256" y1="60" x2="256" y2="460" gradientUnits="userSpaceOnUse">
      <stop offset="0%" stop-color="#ffffff" stop-opacity="0.95"/>
      <stop offset="100%" stop-color="#e0e7ff" stop-opacity="0.9"/>
    </linearGradient>
  </defs>
  <!-- Background -->
  <rect width="512" height="512" rx="112" fill="url(#bg)"/>
  <!-- Shield shape -->
  <path d="M256 72 L416 140 L416 264 C416 360 340 432 256 456 C172 432 96 360 96 264 L96 140 Z" fill="url(#shield)"/>
  <!-- Envelope body -->
  <rect x="168" y="208" width="176" height="120" rx="12" fill="#4f46e5"/>
  <!-- Envelope flap (triangle) -->
  <path d="M168 208 L256 272 L344 208" fill="none" stroke="#6366f1" stroke-width="10" stroke-linejoin="round"/>
  <!-- Envelope lines -->
  <path d="M168 328 L224 280" fill="none" stroke="#6366f1" stroke-width="6" stroke-linecap="round"/>
  <path d="M344 328 L288 280" fill="none" stroke="#6366f1" stroke-width="6" stroke-linecap="round"/>
  <!-- Eye/mask dots representing "veil" -->
  <circle cx="220" cy="172" r="14" fill="#4f46e5"/>
  <circle cx="292" cy="172" r="14" fill="#4f46e5"/>
  <path d="M196 172 Q256 144 316 172" fill="none" stroke="#4f46e5" stroke-width="8" stroke-linecap="round"/>
</svg>
